{"title":"Michelangeli plays Beethoven Sonatas 12, 4 Debussy Images Ravel ","uid":10376612,"size":267462365,"categoryP":"audio","categoryS":"flac","magnet":"?xt=urn:btih:4727d49b56ef3fc12891d37e6e0d7dac53c5ba0a&amp;dn=Michelangeli+plays+Beethoven+Sonatas+12%2C+4+Debussy+Images+Ravel+&amp;tr=udp%3A%2F%2Ftracker.openbittorrent.com%3A80&amp;tr=udp%3A%2F%2Fopen.demonii.com%3A1337&amp;tr=udp%3A%2F%2Ftracker.coppersurfer.tk%3A6969&amp;tr=udp%3A%2F%2Fexodus.desync.com%3A6969","seeders":1,"leechers":0,"uploader":"magneez","files":4,"time":1403014042,"description":"FLAC+CUE EAC rip\n\n\n TRACK 01 AUDIO\n    TITLE &quot;Beethoven / Piano Sonata No.12 in A flat major Op26 - Andante con Variazioni&quot;\n    PERFORMER &quot;Arturo Benedetti Michelangeli&quot;\n    INDEX 01 00:00:00\n  TRACK 02 AUDIO\n    TITLE &quot;Beethoven / Piano Sonata No.12 in A flat major Op26 - Scherzo Allegro molto&quot;\n    PERFORMER &quot;Arturo Benedetti Michelangeli&quot;\n    INDEX 00 07:48:33\n    INDEX 01 07:48:52\n  TRACK 03 AUDIO\n    TITLE &quot;Beethoven / Piano Sonata No.12 in A flat major Op26 - Marcia funebra sulla mo...&quot;\n    PERFORMER &quot;Arturo Benedetti Michelangeli&quot;\n    INDEX 01 10:36:68\n  TRACK 04 AUDIO\n    TITLE &quot;Beethoven / Piano Sonata No.12 in A flat major Op26 - Allegro&quot;\n    PERFORMER &quot;Arturo Benedetti Michelangeli&quot;\n    INDEX 00 16:07:40\n    INDEX 01 16:07:41\n  TRACK 05 AUDIO\n    TITLE &quot;Beethoven / Piano Sonata No.4 in E flat major Op7 - Allegro molto e con brio&quot;\n    PERFORMER &quot;Arturo Benedetti Michelangeli&quot;\n    INDEX 00 19:14:55\n    INDEX 01 19:24:28\n  TRACK 06 AUDIO\n    TITLE &quot;Beethoven / Piano Sonata No.4 in E flat major Op7 - Largo, con gran espressione&quot;\n    PERFORMER &quot;Arturo Benedetti Michelangeli&quot;\n    INDEX 01 28:47:04\n  TRACK 07 AUDIO\n    TITLE &quot;Beethoven / Piano Sonata No.4 in E flat major Op7 - Allegro - Minore&quot;\n    PERFORMER &quot;Arturo Benedetti Michelangeli&quot;\n    INDEX 00 36:35:51\n    INDEX 01 36:35:70\n  TRACK 08 AUDIO\n    TITLE &quot;Beethoven / Piano Sonata No.4 in E flat major Op7 - Rondo Poco Allegretto e g...&quot;\n    PERFORMER &quot;Arturo Benedetti Michelangeli&quot;\n    INDEX 00 41:40:69\n    INDEX 01 41:41:10\n  TRACK 09 AUDIO\n    TITLE &quot;Debussy / Hommage a Rameau from Lent et grave&quot;\n    PERFORMER &quot;Arturo Benedetti Michelangeli&quot;\n    INDEX 00 49:10:53\n    INDEX 01 49:22:01\n  TRACK 10 AUDIO\n    TITLE &quot;Ravel / Gaspard de la nuit - Ondine Lent&quot;\n    PERFORMER &quot;Arturo Benedetti Michelangeli&quot;\n    INDEX 00 56:15:15\n    INDEX 01 56:25:00\n  TRACK 11 AUDIO\n    TITLE &quot;Ravel / Gaspard de la nuit - Le gibet Tres lent&quot;\n    PERFORMER &quot;Arturo Benedetti Michelangeli&quot;\n    INDEX 01 62:28:58\n  TRACK 12 AUDIO\n    TITLE &quot;Ravel / Gaspard de la nuit - Scarbo Modere&quot;\n    PERFORMER &quot;Arturo Benedetti Michelangeli&quot;\n    INDEX 00 68:29:05\n    INDEX 01 68:29:24\n","torrent":{"xt":"urn:btih:4727d49b56ef3fc12891d37e6e0d7dac53c5ba0a","amp;dn":"Michelangeli+plays+Beethoven+Sonatas+12%2C+4+Debussy+Images+Ravel+","amp;tr":["udp%3A%2F%2Ftracker.openbittorrent.com%3A80","udp%3A%2F%2Fopen.demonii.com%3A1337","udp%3A%2F%2Ftracker.coppersurfer.tk%3A6969","udp%3A%2F%2Fexodus.desync.com%3A6969"],"infoHash":"4727d49b56ef3fc12891d37e6e0d7dac53c5ba0a","infoHashBuffer":{"type":"Buffer","data":[71,39,212,155,86,239,63,193,40,145,211,126,110,13,125,172,83,197,186,10]},"announce":[],"urlList":[]}}